<?xml version="1.0" standalone="no"?>
<!DOCTYPE svg PUBLIC "-//W3C//DTD SVG 20010904//EN"
 "http://www.w3.org/TR/2001/REC-SVG-20010904/DTD/svg10.dtd">
<svg version="1.0" xmlns="http://www.w3.org/2000/svg"
 width="218.000000pt" height="200.000000pt" viewBox="0 0 350.000000 350.000000"
 preserveAspectRatio="xMidYMid meet">

<g transform="translate(0.000000,350.000000) scale(0.100000,-0.100000)"
fill="#000000" stroke="none">
<path d="M1321 2773 c-19 -10 -44 -31 -55 -46 -21 -28 -21 -41 -24 -542 -3
-569 -3 -566 60 -605 18 -11 49 -20 68 -20 39 0 43 3 264 143 141 90 186 127
153 127 -7 0 -8 3 -2 8 15 11 17 32 2 32 -9 0 -9 2 1 9 17 11 17 21 0 32 -10
7 -10 9 0 9 7 0 11 4 7 9 -3 6 -27 -3 -53 -18 -26 -16 -93 -56 -149 -90 -78
-47 -110 -61 -140 -61 -74 1 -93 35 -93 170 0 124 9 144 89 196 34 21 61 42
61 45 0 4 -19 19 -42 34 -24 16 -56 41 -73 57 -30 27 -30 29 -33 151 l-4 123
29 28 c45 46 83 35 251 -73 79 -50 147 -91 151 -91 4 0 8 7 8 15 0 8 -5 15
-11 15 -7 0 -7 3 -1 8 15 11 17 32 3 32 -10 0 -10 2 0 9 8 4 14 12 14 16 0 4
-6 12 -14 16 -10 7 -10 9 2 9 21 1 -10 25 -160 124 -221 146 -251 159 -309
129z"/>
<path d="M724 1235 c-51 -134 -51 -135 -28 -135 18 0 28 9 38 35 14 33 18 35
63 35 47 0 50 -2 62 -35 9 -27 18 -35 37 -35 l24 0 -26 68 c-14 37 -37 97 -51
135 -20 54 -29 67 -47 67 -18 0 -29 -20 -72 -135z m105 -17 c1 -14 -7 -18 -34
-18 -40 0 -40 0 -18 65 l16 50 18 -40 c10 -22 18 -48 18 -57z"/>
<path d="M950 1235 l0 -135 25 0 25 0 0 135 0 135 -25 0 -25 0 0 -135z"/>
<path d="M1050 1350 c0 -18 7 -20 70 -20 39 0 70 -3 70 -7 0 -5 -34 -48 -75
-98 -41 -49 -75 -97 -75 -107 0 -16 11 -18 105 -18 98 0 105 1 105 20 0 18 -7
20 -70 20 -38 0 -70 3 -70 6 0 3 32 46 70 94 39 48 70 97 70 109 0 20 -5 21
-100 21 -93 0 -100 -1 -100 -20z"/>
<path d="M1324 1235 c-51 -134 -51 -135 -28 -135 18 0 28 9 38 35 14 33 18 35
63 35 47 0 50 -2 62 -35 9 -27 18 -35 37 -35 l24 0 -26 68 c-14 37 -37 97 -51
135 -20 54 -29 67 -47 67 -18 0 -29 -20 -72 -135z m105 -17 c1 -14 -7 -18 -34
-18 -40 0 -40 0 -18 65 l16 50 18 -40 c10 -22 18 -48 18 -57z"/>
<path d="M1666 1349 c-20 -16 -26 -29 -26 -59 0 -45 11 -55 81 -78 42 -13 55
-22 57 -39 5 -31 -37 -40 -91 -19 -32 12 -43 13 -49 3 -13 -21 -9 -28 27 -43
81 -34 165 -4 165 58 0 43 -24 66 -86 84 -57 16 -72 35 -48 59 18 18 31 19 74
4 26 -9 34 -9 41 2 14 22 11 26 -22 38 -49 17 -94 13 -123 -10z"/>
<path d="M1850 1351 c0 -16 8 -20 43 -23 l42 -3 3 -112 c2 -104 4 -113 22
-113 18 0 20 9 22 113 l3 112 43 3 c34 3 42 7 42 23 0 18 -8 19 -110 19 -102
0 -110 -1 -110 -19z"/>
<path d="M2174 1360 c-31 -13 -72 -66 -80 -105 -4 -25 0 -47 15 -77 78 -161
296 -48 227 117 -25 59 -101 90 -162 65z m79 -42 c34 -18 46 -40 47 -84 0 -96
-112 -125 -152 -39 -16 34 -2 91 29 115 29 23 45 25 76 8z"/>
<path d="M2390 1235 l0 -135 25 0 c23 0 25 4 25 45 0 43 1 45 30 45 24 0 34
-8 56 -45 19 -34 32 -45 50 -45 30 0 30 2 -2 55 l-25 44 20 20 c21 21 28 72
15 106 -11 28 -60 45 -129 45 l-65 0 0 -135z m140 75 c25 -25 25 -35 -1 -61
-14 -14 -30 -19 -52 -17 -28 3 -32 7 -35 36 -2 19 -1 40 2 48 8 21 63 17 86
-6z"/>
<path d="M2650 1235 l0 -135 90 0 c83 0 90 2 90 20 0 17 -8 19 -67 22 l-68 3
-3 38 -3 37 60 0 c54 0 61 2 61 20 0 18 -7 20 -61 20 l-60 0 3 33 c3 32 3 32
66 35 54 3 62 6 62 22 0 18 -7 20 -85 20 l-85 0 0 -135z"/>
<path d="M1066 873 c-3 -10 -8 -35 -12 -57 -7 -37 -6 -38 12 -22 11 9 30 25
43 35 18 13 22 23 17 39 -9 27 -52 30 -60 5z m44 -23 c0 -13 -7 -20 -20 -20
-22 0 -23 1 -14 24 9 23 34 20 34 -4z"/>
<path d="M1181 864 c-24 -31 -26 -44 -8 -68 10 -13 20 -16 35 -12 31 10 28 24
-4 18 -24 -4 -25 -2 -22 29 2 28 7 34 28 36 43 2 45 3 30 13 -24 15 -37 12
-59 -16z"/>
<path d="M1357 835 c-15 -30 -23 -55 -18 -55 5 0 11 7 15 15 7 20 33 19 45 -2
10 -17 10 -16 11 2 0 34 -12 95 -19 95 -4 0 -19 -25 -34 -55z m29 -12 c-11
-11 -17 4 -9 23 7 18 8 18 11 1 2 -10 1 -21 -2 -24z"/>
<path d="M1476 873 c-3 -10 -8 -36 -11 -58 -5 -30 -4 -36 4 -25 6 8 11 23 11
33 0 27 16 20 30 -13 14 -33 30 -40 30 -12 0 9 2 35 5 57 l5 40 -14 -40 -14
-40 -16 38 c-18 42 -22 44 -30 20z"/>
<path d="M1601 840 c-6 -28 -11 -53 -11 -55 0 -12 50 -3 64 10 37 37 26 95
-19 95 -20 0 -25 -7 -34 -50z m59 11 c0 -33 -11 -51 -31 -51 -20 0 -23 10 -13
48 8 28 44 30 44 3z"/>
<path d="M1801 871 c-24 -24 -27 -63 -7 -80 16 -14 47 -11 58 4 13 17 9 45 -7
45 -8 0 -15 -4 -15 -10 0 -5 5 -10 11 -10 5 0 7 -4 4 -10 -9 -15 -45 -12 -51
4 -10 26 15 58 42 53 16 -3 23 0 21 7 -6 19 -35 18 -56 -3z"/>
<path d="M1917 835 c-15 -30 -23 -55 -18 -55 5 0 11 7 15 15 7 20 33 19 45 -2
10 -17 10 -16 11 2 0 34 -12 95 -19 95 -4 0 -19 -25 -34 -55z m29 -12 c-11
-11 -17 4 -9 23 7 18 8 18 11 1 2 -10 1 -21 -2 -24z"/>
<path d="M2031 840 c-13 -62 -13 -63 -1 -55 6 3 10 17 10 31 0 13 5 24 10 24
6 0 10 -10 10 -21 0 -18 2 -19 15 -9 17 14 21 35 5 25 -6 -4 -13 7 -16 24 -9
45 -21 38 -33 -19z"/>
<path d="M2101 868 c-8 -13 -10 -23 -4 -25 5 -2 8 -18 6 -36 -3 -25 -1 -28 5
-12 14 31 24 95 15 95 -5 0 -14 -10 -22 -22z"/>
<path d="M2173 838 c-9 -50 -8 -67 1 -57 9 9 23 109 15 109 -4 0 -11 -24 -16
-52z"/>
<path d="M2241 840 c-13 -62 -13 -63 -1 -55 6 3 10 17 10 31 0 33 15 30 30 -6
7 -16 16 -30 20 -30 3 0 11 25 17 55 5 30 6 55 2 55 -4 0 -10 -17 -14 -37 l-7
-38 -19 38 c-11 20 -21 37 -23 37 -3 0 -9 -23 -15 -50z"/>
<path d="M2387 872 c-20 -22 -23 -81 -4 -83 39 -5 53 -2 59 11 11 26 9 40 -8
40 -11 0 -14 -6 -9 -20 5 -16 2 -20 -15 -20 -11 0 -23 7 -27 16 -9 25 11 49
41 49 14 -1 25 4 23 10 -6 18 -43 16 -60 -3z"/>
</g>
</svg>
